PathFileType	4	(X/Y/Z)	./resultDataOpenSim/trcMotMarkerGrf/sub09/qtm-02-03.trc
DataRate	CameraRate	NumFrames	NumMarkers	Units	OrigDataRate	OrigDataStartFrame	OrigNumFrames
250.000000	250.000000	5	24	m	250.000000	119	472
Frame#	Time	L.Toe.Tip			R.Toe.Tip			L.Ankle.Lat			R.Ankle.Lat			L.Ankle.Med			R.Ankle.Med			L.Heel			R.Heel			L.Knee.Lat			R.Knee.Lat			L.Knee.Med			R.Knee.Med			L.Thigh.Upper			R.Thigh.Upper			L.ASIS			R.ASIS			V.Sacral			L.Acromium			R.Acromium			C7			L.Elbow			R.Elbow			L.Wrist.Lat			R.Wrist.Lat
		X1	Y1	Z1	X2	Y2	Z2	X3	Y3	Z3	X4	Y4	Z4	X5	Y5	Z5	X6	Y6	Z6	X7	Y7	Z7	X8	Y8	Z8	X9	Y9	Z9	X10	Y10	Z10	X11	Y11	Z11	X12	Y12	Z12	X13	Y13	Z13	X14	Y14	Z14	X15	Y15	Z15	X16	Y16	Z16	X17	Y17	Z17	X18	Y18	Z18	X19	Y19	Z19	X20	Y20	Z20	X21	Y21	Z21	X22	Y22	Z22	X23	Y23	Z23	X24	Y24	Z24

119	0.472	-0.23128204	0.083078369	-0.023421508	-0.63739933	0.039206524	0.077904971	-0.38209311	0.091472808	-0.060334959	-0.78517976	0.056634749	0.10410065	-0.36119956	0.11421196	0.033876988	-0.77102275	0.092826072	0.013122906	-0.44274893	0.041577162	-0.010678119	-0.8520194	0.034504291	0.052285515	-0.39542982	0.51096082	-0.096618093	-0.64435864	0.49219396	0.17141826	-0.39853407	0.50639867	0.028904852	-0.66269098	0.48608612	0.043714719	-0.58177395	0.88922471	-0.13847741	-0.62447476	0.89805202	0.23207337	-0.51242405	0.97300339	-0.072003467	-0.51721339	0.97735896	0.16683264	-0.6821039	1.0342193	0.039257997	-0.51252349	1.4278178	-0.12520484	-0.5264204	1.4391079	0.20358699	-0.5833907	1.4846009	0.039767551	-0.69019352	1.1062514	-0.17908157	-0.65756565	1.0972042	0.30044217	-0.5788731	0.86755434	-0.22124459	-0.47835701	0.8860002	0.28734462
120	0.476	-0.21264608	0.0860366	-0.022541427	-0.63734625	0.039135073	0.078013505	-0.36371012	0.090171541	-0.059851273	-0.785514	0.05737268	0.10409244	-0.34351797	0.11384591	0.034473412	-0.7707666	0.092830737	0.013033295	-0.42285907	0.038703416	-0.010096826	-0.85196981	0.034663514	0.052176237	-0.38916975	0.50912846	-0.096801714	-0.64187614	0.49157611	0.17145685	-0.39196467	0.5045789	0.028877033	-0.6602423	0.4855894	0.043778675	-0.57537324	0.88750843	-0.13853398	-0.61878298	0.89720197	0.2319586	-0.5057603	0.97138052	-0.072026318	-0.51104293	0.9761486	0.1668677	-0.67564812	1.032773	0.03902184	-0.50666537	1.4265963	-0.12525847	-0.52029232	1.4377225	0.20360944	-0.57739785	1.4832621	0.039774819	-0.6845473	1.1052138	-0.17880227	-0.65103836	1.0957295	0.30066153	-0.57393795	0.86640068	-0.22187226	-0.47172523	0.88473549	0.28703194
121	0.48	-0.19431217	0.089200681	-0.021692385	-0.63728939	0.039070973	0.078135515	-0.34553258	0.08911936	-0.059388143	-0.78552844	0.057731229	0.10415406	-0.32601188	0.11368844	0.034978643	-0.77049947	0.092826339	0.012921185	-0.40318031	0.036165156	-0.0095854523	-0.85192387	0.034836213	0.052049183	-0.38298021	0.50718668	-0.096957753	-0.63944731	0.49093098	0.17159464	-0.38526121	0.50266788	0.029027231	-0.65771121	0.48506283	0.043826785	-0.56889529	0.88570635	-0.13856776	-0.61306197	0.89631355	0.23183567	-0.49908762	0.96966826	-0.072034683	-0.50486102	0.97488886	0.16691202	-0.66913354	1.0312477	0.038801383	-0.50081654	1.4253355	-0.12532981	-0.51414739	1.43626	0.20362563	-0.57138761	1.4818592	0.039773668	-0.67892239	1.1041222	-0.17869456	-0.64448471	1.0941774	0.30087333	-0.5690314	0.86516125	-0.22255175	-0.46511695	0.88337384	0.28673102
122	0.484	-0.17631496	0.092518604	-0.020883354	-0.63723836	0.039006903	0.078230919	-0.32759467	0.088327102	-0.05896489	-0.78516083	0.057619311	0.1042801	-0.30871441	0.11371811	0.035405646	-0.77023577	0.092812722	0.012795674	-0.38374156	0.03396442	-0.0091175797	-0.85188241	0.035031517	0.051903959	-0.37683031	0.50511696	-0.097087737	-0.63709067	0.49024692	0.17185335	-0.37853236	0.50063937	0.029289457	-0.65503367	0.48451509	0.043880634	-0.56236886	0.88382018	-0.13857105	-0.60731085	0.8953744	0.23169039	-0.49238885	0.96788708	-0.072019225	-0.4986718	0.97358118	0.16696579	-0.66255698	1.0296333	0.038585968	-0.49495834	1.4240238	-0.12541482	-0.50799701	1.434732	0.2036432	-0.56536687	1.4804082	0.039771622	-0.67333712	1.1029795	-0.17874582	-0.63790481	1.0925495	0.30107553	-0.56410978	0.8638548	-0.22325993	-0.45846903	0.88193827	0.28645771
123	0.488	-0.15869005	0.095936768	-0.020111644	-0.63720769	0.038925809	0.078271182	-0.30990187	0.087806062	-0.058574735	-0.78464942	0.057297382	0.10439497	-0.29165743	0.113926	0.035802425	-0.76997635	0.092799458	0.012666678	-0.36457071	0.03209357	-0.0086867323	-0.85184077	0.035256476	0.051737928	-0.37067442	0.50293455	-0.097172259	-0.63479408	0.48952615	0.1721781	-0.3719622	0.4984513	0.029539104	-0.65221249	0.48395638	0.043971173	-0.55580236	0.88185294	-0.13854509	-0.60154969	0.89438328	0.23153353	-0.48566622	0.96606053	-0.071972738	-0.49246485	0.97223033	0.16702557	-0.65595948	1.0279281	0.038366145	-0.48906709	1.4226423	-0.12550127	-0.50185633	1.4331456	0.20366244	-0.55935006	1.4789182	0.039777878	-0.66775104	1.1017634	-0.17884222	-0.63130493	1.0908478	0.30126623	-0.55914798	0.86248662	-0.22396766	-0.45176023	0.880439	0.28621911
